#!OML:ASF E:\emotionWalksFemale\Project 1\Capture day 1\Session 1\Female1.ASF
:FULLY-SPECIFIED
:DEGREES
1585
root 8.35238 15.3539 -22.2994 -1.98881 12.7571 -365.717
lowerback 5.54047 1.16038 2.38075
upperback 0.366759 1.83145 4.25689
thorax -2.79682 0.913846 2.91518
lowerneck 0.970487 -9.10808 -9.33903
upperneck 0.220229 -12.5605 18.8955
head 1.74688 -6.25629 6.9289
rclavicle 1.43373e-014 -1.51076e-014
rhumerus -15.7828 -0.96309 -71.6102
rradius 29.6057
rwrist 25.0181
rhand -8.06793 -54.8295
rfingers 7.12502
rthumb 17.8435 -84.0309
lclavicle 1.43373e-014 -1.51076e-014
lhumerus -31.5251 0.295391 90.5664
lradius 35.9287
lwrist -12.4663
lhand -9.75074 -37.3028
lfingers 7.12502
lthumb 16.2237 -7.96167
rfemur -2.53718 13.9616 34.8726
rtibia 19.9043
rfoot -18.7822 -28.9907
rtoes 9.11841
lfemur -28.616 -6.47909 -15.6439
ltibia 74.4178
lfoot -9.28012 7.962
ltoes -0.401838
1586
root 8.34956 15.3408 -22.2066 -1.69244 12.8138 -365.32
lowerback 5.36189 1.31851 2.19428
upperback 0.148038 2.02273 3.97422
thorax -2.92489 1.009 2.71266
lowerneck 1.39635 -9.25584 -9.60835
upperneck 0.422809 -12.8336 19.3168
head 1.82042 -6.40407 7.10412
rclavicle -7.40473e-015 -1.27222e-014
rhumerus -15.9437 -0.566556 -71.961
rradius 30.1639
rwrist 23.6215
rhand -8.32083 -54.8151
rfingers 7.12502
rthumb 17.6001 -84.0385
lclavicle -7.40473e-015 -1.27222e-014
lhumerus -31.6748 0.124215 90.5085
lradius 35.7421
lwrist -12.7866
lhand -8.26239 -37.4293
lfingers 7.12502
lthumb 17.6564 -8.21099
rfemur -2.40608 13.9929 34.6289
rtibia 20.1051
rfoot -18.9653 -29.068
rtoes 9.54049
lfemur -29.3632 -7.03694 -16.3814
ltibia 73.3691
lfoot -10.5053 8.31841
ltoes 4.78142
1587
root 8.34282 15.3348 -22.1079 -1.56517 12.7999 -365.238
lowerback 5.11075 1.45628 2.24102
upperback 0.0648849 2.19551 3.81185
thorax -2.86694 1.09327 2.50946
lowerneck 1.58572 -9.36246 -9.88078
upperneck 0.64139 -13.0401 19.6382
head 1.92346 -6.50728 7.24031
rclavicle 3.70236e-015 -3.97569e-015
rhumerus -15.9953 -0.311834 -72.298
rradius 30.8381
rwrist 22.0843
rhand -8.17088 -54.6506
rfingers 7.12502
rthumb 17.7444 -83.861
lclavicle 3.70236e-015 -3.97569e-015
lhumerus -32.1062 -0.671699 90.6338
lradius 36.368
lwrist -12.528
lhand -6.78954 -36.9683
lfingers 7.12502
lthumb 19.0732 -7.88353
rfemur -2.06741 14.28 34.7981
rtibia 20.1458
rfoot -19.2601 -30.1241
rtoes 9.42846
lfemur -30.1214 -7.4251 -16.7196
ltibia 72.1865
lfoot -11.473 8.52861
ltoes 6.1933
1588
root 8.32863 15.3336 -22.0021 -1.7218 12.4945 -365.405
lowerback 5.03399 1.64863 2.36232
upperback 0.15493 2.45026 3.78639
thorax -2.7319 1.21894 2.39915
lowerneck 1.53712 -9.45043 -10.1674
upperneck 0.913712 -13.2139 19.8493
head 2.07159 -6.58095 7.33219
rclavicle 4.34593e-014 3.18055e-015
rhumerus -15.8179 -0.1738 -72.6331
rradius 31.4178
rwrist 21.0205
rhand -7.85033 -54.6369
rfingers 7.12502
rthumb 18.0528 -83.8191
lclavicle 4.34593e-014 3.18055e-015
lhumerus -32.4146 -1.49609 90.8416
lradius 37.0791
lwrist -12.1697
lhand -5.64358 -36.4984
lfingers 7.12502
lthumb 20.175 -7.52605
rfemur -1.3505 14.9318 35.3634
rtibia 19.9881
rfoot -19.835 -30.5318
rtoes 9.47381
lfemur -30.6192 -7.41765 -16.7593
ltibia 70.8471
lfoot -11.6155 8.90262
ltoes 2.88047
1589
root 8.32144 15.3405 -21.8893 -1.72218 12.0299 -365.352
lowerback 4.91531 1.89337 2.34797
upperback 0.138057 2.76682 3.6691
thorax -2.68556 1.37612 2.26612
lowerneck 1.52317 -9.5533 -10.4477
upperneck 1.22197 -13.4182 20.0912
head 2.23174 -6.66974 7.43181
rclavicle -2.5519e-014 5.96354e-015
rhumerus -15.8195 0.239434 -73.0413
rradius 32.0176
rwrist 19.8722
rhand -7.82438 -54.7779
rfingers 7.12502
rthumb 18.0778 -83.9578
lclavicle -2.5519e-014 5.96354e-015
lhumerus -32.7124 -1.89812 90.875
lradius 37.3188
lwrist -12.1977
lhand -4.55622 -36.554
lfingers 7.12502
lthumb 21.2198 -7.69544
rfemur -0.728901 15.3855 35.6044
rtibia 19.8023
rfoot -19.901 -30.6876
rtoes 9.00344
lfemur -31.0116 -7.38337 -17.0204
ltibia 69.2611
lfoot -11.6889 9.31333
ltoes -0.435388
1590
root 8.3206 15.3446 -21.7806 -1.59801 11.7242 -365.136
lowerback 4.82229 2.10353 2.33265
upperback 0.0152245 3.03868 3.41044
thorax -2.75291 1.50901 1.98893
lowerneck 1.77124 -9.67792 -10.4937
upperneck 1.44539 -13.646 20.2235
head 2.30266 -6.78633 7.47402
rclavicle 4.12851e-014 -9.93923e-015
rhumerus -15.941 0.604743 -73.5499
rradius 32.6308
rwrist 18.6507
rhand -8.09911 -54.5761
rfingers 7.12502
rthumb 17.8135 -83.7803
lclavicle 4.12851e-014 -9.93923e-015
lhumerus -33.0918 -2.23488 90.7329
lradius 37.4168
lwrist -12.2378
lhand -3.41653 -36.7589
lfingers 7.12502
lthumb 22.3142 -8.02741
rfemur -0.208253 15.5584 35.5881
rtibia 19.575
rfoot -19.8989 -30.7116
rtoes 8.68568
lfemur -31.4327 -7.61582 -17.4233
ltibia 67.5097
lfoot -12.076 9.44921
ltoes -2.05199
1591
root 8.33328 15.3489 -21.6923 -1.01173 11.6899 -364.31
lowerback 4.62451 2.26295 2.00488
upperback -0.21576 3.21743 2.9114
thorax -2.87201 1.59727 1.64746
lowerneck 2.23237 -9.82536 -10.5267
upperneck 1.37291 -13.8747 20.399
head 2.25536 -6.92593 7.54541
rclavicle 1.74806e-014 -2.0276e-014
rhumerus -16.0728 0.809899 -74.0483
rradius 33.348
rwrist 17.4792
rhand -7.99601 -54.4213
rfingers 7.12502
rthumb 17.9127 -83.6164
lclavicle 1.74806e-014 -2.0276e-014
lhumerus -33.5322 -2.69309 90.6532
lradius 37.7387
lwrist -11.9265
lhand -2.40043 -36.9734
lfingers 7.12502
lthumb 23.2893 -8.36199
rfemur -0.0961915 15.1741 34.6494
rtibia 19.2752
rfoot -20.1101 -30.247
rtoes 8.60972
lfemur -32.1062 -8.21162 -18.5087
ltibia 65.6019
lfoot -12.361 9.68487
ltoes -2.7467
1592
root 8.33251 15.3518 -21.5883 -0.713043 11.4822 -364.054
lowerback 4.32492 2.42714 1.84571
upperback -0.271836 3.41288 2.73942
thorax -2.76318 1.69621 1.5574
lowerneck 2.09621 -9.91366 -10.6912
upperneck 1.4613 -14.0101 20.4509
head 2.34189 -6.98312 7.56747
rclavicle 9.57894e-015 1.66979e-014
rhumerus -16.0415 1.28604 -74.4698
rradius 34.1156
rwrist 16.1816
rhand -7.72504 -54.481
rfingers 7.12502
rthumb 18.1734 -83.652
lclavicle 9.57894e-015 1.66979e-014
lhumerus -33.9041 -2.80884 90.6356
lradius 38.1445
lwrist -11.7751
lhand -1.56461 -37.6004
lfingers 7.12502
lthumb 24.0909 -9.09276
rfemur 0.263505 15.2225 34.5049
rtibia 18.9283
rfoot -20.2217 -30.0049
rtoes 9.415
lfemur -32.6108 -8.4765 -18.8515
ltibia 63.7283
lfoot -12.7195 9.73645
ltoes -2.99791
1593
root 8.32255 15.3522 -21.4757 -0.868867 11.1849 -364.397
lowerback 4.21843 2.52369 2.12078
upperback -0.148195 3.54816 2.78622
thorax -2.5645 1.76151 1.45171
lowerneck 1.97026 -9.91646 -10.9886
upperneck 1.58084 -14.0413 20.6031
head 2.43649 -6.98901 7.65104
rclavicle 2.03754e-015 -2.38542e-015
rhumerus -15.7805 1.80012 -74.9727
rradius 34.7606
rwrist 15.1726
rhand -7.81051 -54.1489
rfingers 7.12502
rthumb 18.0912 -83.3276
lclavicle 2.03754e-015 -2.38542e-015
lhumerus -34.28 -2.88572 90.5811
lradius 38.7138
lwrist -11.5445
lhand -1.01102 -37.822
lfingers 7.12502
lthumb 24.6216 -9.3857
rfemur 0.992247 15.461 35.1848
rtibia 18.5982
rfoot -20.0849 -30.0261
rtoes 10.121
lfemur -32.8464 -8.61397 -18.483
ltibia 61.8548
lfoot -13.1469 9.62915
ltoes -2.63874
